<svg width="35" height="26" viewBox="0 0 35 26" fill="none" xmlns="http://www.w3.org/2000/svg">
<path d="M28.951 2.16076C26.7904 1.15352 24.451 0.422464 22.0141 7.47275e-05C21.9927 -0.000608574 21.9715 0.00340101 21.9518 0.0118216C21.9322 0.0202423 21.9146 0.0328694 21.9004 0.0488123C21.608 0.584922 21.2668 1.28349 21.0394 1.8196C18.4547 1.4297 15.8261 1.4297 13.2414 1.8196C13.014 1.26724 12.6728 0.584922 12.3641 0.0488123C12.3479 0.0163208 12.2991 7.47275e-05 12.2504 7.47275e-05C9.81355 0.422464 7.49041 1.15352 5.31348 2.16076C5.29723 2.16076 5.28098 2.177 5.26474 2.19325C0.845895 8.80527 -0.372536 15.2386 0.228556 21.6069C0.228556 21.6394 0.244802 21.6719 0.277294 21.6881C3.20153 23.8326 6.01204 25.1322 8.79007 25.9933C8.8388 26.0095 8.88754 25.9933 8.90379 25.9608C9.55362 25.0673 10.1385 24.125 10.6421 23.134C10.6746 23.069 10.6421 23.0041 10.5771 22.9878C9.65109 22.6304 8.77382 22.208 7.9128 21.7206C7.84781 21.6881 7.84781 21.5907 7.89655 21.5419C8.07525 21.412 8.25396 21.2658 8.43266 21.1358C8.46515 21.1033 8.51389 21.1033 8.54638 21.1195C14.1349 23.6701 20.1621 23.6701 25.6856 21.1195C25.7181 21.1033 25.7669 21.1033 25.7994 21.1358C25.9781 21.282 26.1568 21.412 26.3355 21.5582C26.4005 21.6069 26.4005 21.7044 26.3192 21.7369C25.4744 22.2405 24.5809 22.6466 23.6549 23.0041C23.5899 23.0203 23.5737 23.1015 23.5899 23.1503C24.1098 24.1413 24.6947 25.0835 25.3282 25.977C25.377 25.9933 25.4257 26.0095 25.4744 25.9933C28.2687 25.1322 31.0792 23.8326 34.0035 21.6881C34.036 21.6719 34.0522 21.6394 34.0522 21.6069C34.767 14.2476 32.8663 7.86302 29.016 2.19325C28.9998 2.177 28.9835 2.16076 28.951 2.16076V2.16076ZM11.4869 17.7242C9.81355 17.7242 8.41641 16.1808 8.41641 14.2801C8.41641 12.3793 9.78106 10.836 11.4869 10.836C13.2089 10.836 14.5736 12.3956 14.5573 14.2801C14.5573 16.1808 13.1927 17.7242 11.4869 17.7242ZM22.8101 17.7242C21.1368 17.7242 19.7397 16.1808 19.7397 14.2801C19.7397 12.3793 21.1043 10.836 22.8101 10.836C24.5322 10.836 25.8968 12.3956 25.8806 14.2801C25.8806 16.1808 24.5322 17.7242 22.8101 17.7242Z" fill="white"/>
</svg>
