<svg width="33" height="26" viewBox="0 0 33 26" fill="none" xmlns="http://www.w3.org/2000/svg">
<path d="M32.1406 3.05882C30.9629 3.59412 29.6935 3.94588 28.3782 4.11412C29.7241 3.30353 30.7641 2.01882 31.2535 0.474118C29.9841 1.23882 28.577 1.77412 27.0935 2.08C25.8853 0.764706 24.1876 0 22.2606 0C18.6664 0 15.73 2.93647 15.73 6.56118C15.73 7.08118 15.7911 7.58588 15.8982 8.06C10.4535 7.78471 5.60526 5.16941 2.3782 1.20824C1.81232 2.17176 1.49115 3.30353 1.49115 4.49647C1.49115 6.77529 2.6382 8.79412 4.41232 9.94118C3.32644 9.94118 2.31703 9.63529 1.42997 9.17647V9.22235C1.42997 12.4035 3.6935 15.0647 6.69115 15.6612C5.72873 15.9246 4.71835 15.9612 3.73938 15.7682C4.15478 17.072 4.96832 18.2129 6.06564 19.0304C7.16296 19.8479 8.48889 20.3009 9.85703 20.3259C7.53787 22.1618 4.66314 23.1542 1.70526 23.14C1.18526 23.14 0.665264 23.1094 0.145264 23.0482C3.05115 24.9141 6.50762 26 10.2088 26C22.2606 26 28.8829 15.9976 28.8829 7.32588C28.8829 7.03529 28.8829 6.76 28.8676 6.46941C30.1523 5.55176 31.2535 4.38941 32.1406 3.05882V3.05882Z" fill="white"/>
</svg>
