<svg width="35" height="24" viewBox="0 0 35 24" fill="none" xmlns="http://www.w3.org/2000/svg">
<path d="M13.7143 17.1429L22.6114 12L13.7143 6.85714V17.1429ZM33.5314 3.72C33.7543 4.52571 33.9086 5.60571 34.0114 6.97714C34.1314 8.34857 34.1829 9.53143 34.1829 10.56L34.2857 12C34.2857 15.7543 34.0114 18.5143 33.5314 20.28C33.1029 21.8229 32.1086 22.8171 30.5657 23.2457C29.76 23.4686 28.2857 23.6229 26.0229 23.7257C23.7943 23.8457 21.7543 23.8971 19.8686 23.8971L17.1429 24C9.96 24 5.48571 23.7257 3.72 23.2457C2.17714 22.8171 1.18286 21.8229 0.754286 20.28C0.531429 19.4743 0.377143 18.3943 0.274286 17.0229C0.154286 15.6514 0.102857 14.4686 0.102857 13.44L0 12C0 8.24571 0.274286 5.48571 0.754286 3.72C1.18286 2.17714 2.17714 1.18286 3.72 0.754286C4.52571 0.531429 6 0.377143 8.26286 0.274285C10.4914 0.154285 12.5314 0.102857 14.4171 0.102857L17.1429 0C24.3257 0 28.8 0.274286 30.5657 0.754286C32.1086 1.18286 33.1029 2.17714 33.5314 3.72V3.72Z" fill="white"/>
</svg>
